<svg width="26" height="26" viewBox="0 0 26 26" fill="none" xmlns="http://www.w3.org/2000/svg">
<path fill-rule="evenodd" clip-rule="evenodd" d="M0 12.865C0 5.75966 5.75966 0 12.865 0C19.9703 0 25.73 5.75966 25.73 12.865C25.73 19.9703 19.9703 25.73 12.865 25.73C5.75966 25.73 0 19.9703 0 12.865ZM12.865 2.573C10.1354 2.573 7.51758 3.65733 5.58746 5.58746C3.65733 7.51758 2.573 10.1354 2.573 12.865C2.573 15.5946 3.65733 18.2124 5.58746 20.1425C7.51758 22.0727 10.1354 23.157 12.865 23.157C15.5946 23.157 18.2124 22.0727 20.1425 20.1425C22.0727 18.2124 23.157 15.5946 23.157 12.865C23.157 10.1354 22.0727 7.51758 20.1425 5.58746C18.2124 3.65733 15.5946 2.573 12.865 2.573Z" fill="white"/>
<path fill-rule="evenodd" clip-rule="evenodd" d="M14.1515 6.4325C14.1515 6.09129 14.016 5.76407 13.7747 5.5228C13.5334 5.28154 13.2062 5.146 12.865 5.146C12.5238 5.146 12.1966 5.28154 11.9553 5.5228C11.714 5.76407 11.5785 6.09129 11.5785 6.4325V11.5785H6.4325C6.09129 11.5785 5.76407 11.714 5.5228 11.9553C5.28154 12.1966 5.146 12.5238 5.146 12.865C5.146 13.2062 5.28154 13.5334 5.5228 13.7747C5.76407 14.016 6.09129 14.1515 6.4325 14.1515H11.5785V19.2975C11.5785 19.6387 11.714 19.9659 11.9553 20.2072C12.1966 20.4485 12.5238 20.584 12.865 20.584C13.2062 20.584 13.5334 20.4485 13.7747 20.2072C14.016 19.9659 14.1515 19.6387 14.1515 19.2975V14.1515H19.2975C19.6387 14.1515 19.9659 14.016 20.2072 13.7747C20.4485 13.5334 20.584 13.2062 20.584 12.865C20.584 12.5238 20.4485 12.1966 20.2072 11.9553C19.9659 11.714 19.6387 11.5785 19.2975 11.5785H14.1515V6.4325Z" fill="white"/>
</svg>
