<svg width="46" height="46" viewBox="0 0 46 46" fill="none" xmlns="http://www.w3.org/2000/svg">
<path d="M36.4167 42.1667H9.58333C7.46624 42.1667 5.75 40.4504 5.75 38.3333V11.5C5.75 9.38292 7.46624 7.66668 9.58333 7.66668H13.4167V5.75001C13.4167 4.69146 14.2748 3.83334 15.3333 3.83334C16.3919 3.83334 17.25 4.69146 17.25 5.75001V7.66668H28.75V5.75001C28.75 4.69146 29.6081 3.83334 30.6667 3.83334C31.7252 3.83334 32.5833 4.69146 32.5833 5.75001V7.66668H36.4167C38.5338 7.66668 40.25 9.38292 40.25 11.5V38.3333C40.25 40.4504 38.5338 42.1667 36.4167 42.1667ZM9.58333 19.1667V37.3333C9.58333 37.8856 10.031 38.3333 10.5833 38.3333H35.4167C35.969 38.3333 36.4167 37.8856 36.4167 37.3333V19.1667H9.58333ZM10.5833 11.5C10.031 11.5 9.58333 11.9477 9.58333 12.5V15.3333H36.4167V12.5C36.4167 11.9477 35.969 11.5 35.4167 11.5H10.5833ZM32.5833 32.5833C32.5833 33.6419 31.7252 34.5 30.6667 34.5C29.6081 34.5 28.75 33.6419 28.75 32.5833C28.75 31.5248 29.6081 30.6667 30.6667 30.6667C31.7252 30.6667 32.5833 31.5248 32.5833 32.5833ZM24.9167 32.5833C24.9167 33.6419 24.0585 34.5 23 34.5C21.9415 34.5 21.0833 33.6419 21.0833 32.5833C21.0833 31.5248 21.9415 30.6667 23 30.6667C24.0585 30.6667 24.9167 31.5248 24.9167 32.5833ZM17.25 32.5833C17.25 33.6419 16.3919 34.5 15.3333 34.5C14.2748 34.5 13.4167 33.6419 13.4167 32.5833C13.4167 31.5248 14.2748 30.6667 15.3333 30.6667C16.3919 30.6667 17.25 31.5248 17.25 32.5833ZM32.5833 24.9167C32.5833 25.9752 31.7252 26.8333 30.6667 26.8333C29.6081 26.8333 28.75 25.9752 28.75 24.9167C28.75 23.8581 29.6081 23 30.6667 23C31.7252 23 32.5833 23.8581 32.5833 24.9167ZM24.9167 24.9167C24.9167 25.9752 24.0585 26.8333 23 26.8333C21.9415 26.8333 21.0833 25.9752 21.0833 24.9167C21.0833 23.8581 21.9415 23 23 23C24.0585 23 24.9167 23.8581 24.9167 24.9167ZM17.25 24.9167C17.25 25.9752 16.3919 26.8333 15.3333 26.8333C14.2748 26.8333 13.4167 25.9752 13.4167 24.9167C13.4167 23.8581 14.2748 23 15.3333 23C16.3919 23 17.25 23.8581 17.25 24.9167Z" fill="#D8DEF3"/>
</svg>
