<svg width="18" height="18" viewBox="0 0 18 18" fill="none" xmlns="http://www.w3.org/2000/svg">
<path d="M6.05704 5.04676V1.74854M12.6535 5.04676V1.74854M5.23249 10.3239H13.478M3.58338 16.5905H15.1272C15.5645 16.5905 15.984 16.4168 16.2933 16.1075C16.6025 15.7983 16.7763 15.3788 16.7763 14.9414V5.04676C16.7763 4.60939 16.6025 4.18993 16.2933 3.88066C15.984 3.57139 15.5645 3.39765 15.1272 3.39765H3.58338C3.14601 3.39765 2.72655 3.57139 2.41728 3.88066C2.10801 4.18993 1.93427 4.60939 1.93427 5.04676L1.93427 14.9414C1.93427 15.3788 2.10801 15.7983 2.41728 16.1075C2.72655 16.4168 3.14601 16.5905 3.58338 16.5905Z" stroke="#E5FF7F" stroke-width="1.97893" stroke-linecap="round" stroke-linejoin="round"/>
</svg>
