<svg width="18" height="18" viewBox="0 0 18 18" fill="none" xmlns="http://www.w3.org/2000/svg">
<path d="M8.7783 5.87131V9.16954L11.252 11.6432M16.1993 9.16954C16.1993 10.1441 16.0074 11.1091 15.6344 12.0094C15.2615 12.9098 14.7148 13.7279 14.0257 14.417C13.3366 15.1061 12.5186 15.6527 11.6182 16.0257C10.7178 16.3986 9.75284 16.5905 8.7783 16.5905C7.80376 16.5905 6.83876 16.3986 5.93841 16.0257C5.03805 15.6527 4.21996 15.1061 3.53086 14.417C2.84176 13.7279 2.29513 12.9098 1.92219 12.0094C1.54925 11.1091 1.3573 10.1441 1.3573 9.16954C1.3573 7.20137 2.13915 5.3138 3.53086 3.9221C4.92257 2.53039 6.81013 1.74854 8.7783 1.74854C10.7465 1.74854 12.634 2.53039 14.0257 3.9221C15.4174 5.3138 16.1993 7.20137 16.1993 9.16954Z" stroke="#E5FF7F" stroke-width="1.97893" stroke-linecap="round" stroke-linejoin="round"/>
</svg>
