<svg width="45" height="45" viewBox="0 0 45 45" fill="none" xmlns="http://www.w3.org/2000/svg">
<path d="M7.33508 26.1045C8.86958 18.7358 15.2843 13.5 22.5001 13.5C29.7136 13.5 36.1283 18.7358 37.6651 26.1045C37.726 26.3969 37.9005 26.6531 38.1503 26.8169C38.4001 26.9806 38.7047 27.0384 38.9971 26.9775C39.2895 26.9166 39.5457 26.7421 39.7095 26.4923C39.8732 26.2425 39.9309 25.9379 39.8701 25.6455C38.1218 17.2642 30.8093 11.25 22.5001 11.25C14.1908 11.25 6.87833 17.2642 5.13008 25.6455C5.06922 25.9379 5.127 26.2425 5.29072 26.4923C5.45444 26.7421 5.71068 26.9166 6.00308 26.9775C6.29548 27.0384 6.60009 26.9806 6.84989 26.8169C7.09969 26.6531 7.27422 26.3969 7.33508 26.1045ZM22.4776 18C24.5662 18 26.5692 18.8297 28.046 20.3065C29.5229 21.7834 30.3526 23.7864 30.3526 25.875C30.3526 27.9636 29.5229 29.9666 28.046 31.4435C26.5692 32.9203 24.5662 33.75 22.4776 33.75C20.389 33.75 18.386 32.9203 16.9091 31.4435C15.4323 29.9666 14.6026 27.9636 14.6026 25.875C14.6026 23.7864 15.4323 21.7834 16.9091 20.3065C18.386 18.8297 20.389 18 22.4776 18Z" fill="#2E3A59"/>
</svg>
