<svg width="45" height="45" viewBox="0 0 45 45" fill="none" xmlns="http://www.w3.org/2000/svg">
<path d="M6.42146 4.82849C6.31686 4.72389 6.19268 4.64092 6.05602 4.58431C5.91936 4.5277 5.77288 4.49857 5.62496 4.49857C5.47703 4.49857 5.33056 4.5277 5.19389 4.58431C5.05723 4.64092 4.93305 4.72389 4.82846 4.82849C4.72386 4.93308 4.64089 5.05726 4.58428 5.19392C4.52767 5.33059 4.49854 5.47706 4.49854 5.62499C4.49854 5.77291 4.52767 5.91939 4.58428 6.05605C4.64089 6.19271 4.72386 6.31689 4.82846 6.42149L12.7035 14.292C8.80324 16.9522 6.08802 21.0226 5.12996 25.6455C5.09982 25.7901 5.09846 25.9393 5.12597 26.0844C5.15347 26.2296 5.2093 26.3679 5.29026 26.4915C5.37122 26.6151 5.47573 26.7215 5.59782 26.8047C5.71991 26.8879 5.8572 26.9462 6.00183 26.9764C6.14647 27.0065 6.29562 27.0079 6.44078 26.9804C6.58594 26.9528 6.72426 26.897 6.84784 26.8161C6.97142 26.7351 7.07785 26.6306 7.16104 26.5085C7.24424 26.3864 7.30257 26.2491 7.33271 26.1045C7.7622 24.0266 8.60191 22.0552 9.80267 20.3059C11.0034 18.5565 12.5411 17.0643 14.3257 15.9165L17.8875 19.476C16.9592 20.1418 16.1869 21.0017 15.6241 21.9958C15.0614 22.99 14.7217 24.0947 14.6286 25.2333C14.5355 26.3719 14.6912 27.5171 15.085 28.5895C15.4787 29.6619 16.1011 30.6357 16.9089 31.4435C17.7167 32.2513 18.6906 32.8737 19.763 33.2675C20.8353 33.6612 21.9806 33.817 23.1191 33.7239C24.2577 33.6308 25.3624 33.2911 26.3566 32.7283C27.3508 32.1656 28.2106 31.3933 28.8765 30.465L38.5807 40.1715C38.7919 40.3827 39.0785 40.5014 39.3772 40.5014C39.6759 40.5014 39.9625 40.3827 40.1737 40.1715C40.3849 39.9602 40.5036 39.6737 40.5036 39.375C40.5036 39.0762 40.3849 38.7897 40.1737 38.5785L6.42146 4.82849ZM22.779 18.0067L30.3457 25.5735C30.2695 23.591 29.4478 21.7103 28.045 20.3075C26.6421 18.9046 24.7614 18.0829 22.779 18.0067ZM16.9425 12.1725L18.7492 13.9792C19.9741 13.6611 21.2344 13.5 22.5 13.5C29.7135 13.5 36.1282 18.7357 37.665 26.1045C37.7258 26.3969 37.9004 26.6531 38.1502 26.8169C38.4 26.9806 38.7046 27.0384 38.997 26.9775C39.2894 26.9166 39.5456 26.7421 39.7093 26.4923C39.873 26.2425 39.9308 25.9379 39.87 25.6455C38.1217 17.2642 30.8092 11.25 22.5 11.25C20.5762 11.25 18.702 11.5717 16.9425 12.1725Z" fill="#2E3A59"/>
</svg>
