<svg width="58" height="58" viewBox="0 0 58 58" fill="none" xmlns="http://www.w3.org/2000/svg">
<path d="M28.9018 4.81696C25.7389 4.81696 22.607 5.43993 19.6849 6.6503C16.7628 7.86067 14.1078 9.63474 11.8713 11.8712C7.35451 16.388 4.81702 22.5141 4.81702 28.9017C4.81702 39.5472 11.7293 48.579 21.291 51.7823C22.4952 51.9749 22.8806 51.2283 22.8806 50.578V46.5077C16.2091 47.9528 14.7881 43.2803 14.7881 43.2803C13.6802 40.4865 12.1147 39.7399 12.1147 39.7399C9.92299 38.2466 12.2833 38.2948 12.2833 38.2948C14.6918 38.4634 15.9683 40.7755 15.9683 40.7755C18.0636 44.4364 21.6041 43.3526 22.9769 42.7746C23.1937 41.2091 23.8199 40.1493 24.4943 39.5472C19.1475 38.9451 13.5357 36.8738 13.5357 27.6975C13.5357 25.0241 14.4509 22.8805 16.0164 21.1705C15.7756 20.5684 14.9326 18.0636 16.2573 14.8121C16.2573 14.8121 18.2804 14.1618 22.8806 17.2688C24.7833 16.7389 26.8546 16.474 28.9018 16.474C30.949 16.474 33.0203 16.7389 34.923 17.2688C39.5232 14.1618 41.5463 14.8121 41.5463 14.8121C42.871 18.0636 42.028 20.5684 41.7872 21.1705C43.3527 22.8805 44.2679 25.0241 44.2679 27.6975C44.2679 36.8979 38.632 38.921 33.2611 39.5231C34.1282 40.2697 34.923 41.7389 34.923 43.9788V50.578C34.923 51.2283 35.3083 51.999 36.5367 51.7823C46.0983 48.5549 52.9866 39.5472 52.9866 28.9017C52.9866 25.7389 52.3636 22.607 51.1532 19.6849C49.9429 16.7628 48.1688 14.1077 45.9323 11.8712C43.6958 9.63474 41.0407 7.86067 38.1186 6.6503C35.1965 5.43993 32.0647 4.81696 28.9018 4.81696Z" fill="#6C5ECF"/>
</svg>
