<svg width="56" height="56" viewBox="0 0 56 56" fill="none" xmlns="http://www.w3.org/2000/svg">
<path d="M7.96652 30.333C6.7488 30.333 6.13896 28.8607 7.00002 27.9997L26.3504 8.64932C27.2615 7.73843 28.7385 7.73843 29.6497 8.64932L49 27.9997C49.8611 28.8607 49.2512 30.333 48.0335 30.333C47.2786 30.333 46.6667 30.9449 46.6667 31.6998V48.9997C46.6667 50.2883 45.622 51.333 44.3334 51.333H40.8334C36.323 51.333 32.6667 47.6767 32.6667 43.1663V39.6663C32.6667 37.089 30.5774 34.9997 28 34.9997C25.4227 34.9997 23.3334 37.089 23.3334 39.6663V43.1663C23.3334 47.6767 19.677 51.333 15.1667 51.333H11.6667C10.378 51.333 9.33335 50.2883 9.33335 48.9997V31.6998C9.33335 30.9449 8.7214 30.333 7.96652 30.333Z" fill="#D8DEF3"/>
</svg>
