<svg width="59" height="58" viewBox="0 0 59 58" fill="none" xmlns="http://www.w3.org/2000/svg">
<path d="M45.9982 7.22546C47.2757 7.22546 48.5009 7.73296 49.4043 8.63632C50.3076 9.53967 50.8151 10.7649 50.8151 12.0424V45.7611C50.8151 47.0386 50.3076 48.2639 49.4043 49.1672C48.5009 50.0706 47.2757 50.5781 45.9982 50.5781H12.2795C11.0019 50.5781 9.77673 50.0706 8.87338 49.1672C7.97002 48.2639 7.46252 47.0386 7.46252 45.7611V12.0424C7.46252 10.7649 7.97002 9.53967 8.87338 8.63632C9.77673 7.73296 11.0019 7.22546 12.2795 7.22546H45.9982ZM44.7939 44.5569V31.7919C44.7939 29.7096 43.9667 27.7125 42.4942 26.24C41.0218 24.7675 39.0247 23.9403 36.9423 23.9403C34.8951 23.9403 32.5107 25.1927 31.3546 27.0713V24.3979H24.635V44.5569H31.3546V32.6831C31.3546 30.8285 32.8479 29.3112 34.7024 29.3112C35.5967 29.3112 36.4543 29.6665 37.0867 30.2988C37.719 30.9312 38.0743 31.7888 38.0743 32.6831V44.5569H44.7939ZM16.8074 20.6166C17.8805 20.6166 18.9097 20.1903 19.6685 19.4315C20.4274 18.6727 20.8537 17.6435 20.8537 16.5704C20.8537 14.3305 19.0473 12.5 16.8074 12.5C15.7279 12.5 14.6926 12.9289 13.9293 13.6922C13.1659 14.4555 12.7371 15.4908 12.7371 16.5704C12.7371 18.8102 14.5675 20.6166 16.8074 20.6166ZM20.1552 44.5569V24.3979H13.4837V44.5569H20.1552Z" fill="#6C5ECF"/>
</svg>
