<svg width="24" height="24" viewBox="0 0 24 24" fill="none" xmlns="http://www.w3.org/2000/svg">
<path d="M12 3.25C12.1989 3.25 12.3897 3.32902 12.5303 3.46967C12.671 3.61032 12.75 3.80109 12.75 4C12.75 4.19891 12.671 4.38968 12.5303 4.53033C12.3897 4.67098 12.1989 4.75 12 4.75C10.0772 4.75 8.23311 5.51384 6.87348 6.87348C5.51384 8.23311 4.75 10.0772 4.75 12C4.75 13.9228 5.51384 15.7669 6.87348 17.1265C8.23311 18.4862 10.0772 19.25 12 19.25C12.1989 19.25 12.3897 19.329 12.5303 19.4697C12.671 19.6103 12.75 19.8011 12.75 20C12.75 20.1989 12.671 20.3897 12.5303 20.5303C12.3897 20.671 12.1989 20.75 12 20.75C9.67936 20.75 7.45376 19.8281 5.81282 18.1872C4.17187 16.5462 3.25 14.3206 3.25 12C3.25 9.67936 4.17187 7.45376 5.81282 5.81282C7.45376 4.17187 9.67936 3.25 12 3.25Z" fill="black"/>
<path d="M16.47 9.52985C16.3375 9.38767 16.2654 9.19963 16.2688 9.00532C16.2723 8.81102 16.351 8.62564 16.4884 8.48823C16.6258 8.35081 16.8112 8.2721 17.0055 8.26867C17.1998 8.26524 17.3878 8.33737 17.53 8.46985L20.53 11.4698C20.6705 11.6105 20.7493 11.8011 20.7493 11.9998C20.7493 12.1986 20.6705 12.3892 20.53 12.5298L17.53 15.5298C17.4613 15.6035 17.3785 15.6626 17.2865 15.7036C17.1945 15.7446 17.0952 15.7667 16.9945 15.7684C16.8938 15.7702 16.7938 15.7517 16.7004 15.714C16.607 15.6762 16.5222 15.6201 16.451 15.5489C16.3797 15.4777 16.3236 15.3928 16.2859 15.2994C16.2482 15.2061 16.2296 15.106 16.2314 15.0053C16.2332 14.9046 16.2552 14.8053 16.2962 14.7133C16.3372 14.6213 16.3963 14.5385 16.47 14.4698L18.19 12.7498H10C9.80109 12.7498 9.61032 12.6708 9.46967 12.5302C9.32902 12.3895 9.25 12.1988 9.25 11.9998C9.25 11.8009 9.32902 11.6102 9.46967 11.4695C9.61032 11.3289 9.80109 11.2498 10 11.2498H18.19L16.47 9.52985Z" fill="black"/>
</svg>
