<svg width="59" height="58" viewBox="0 0 59 58" fill="none" xmlns="http://www.w3.org/2000/svg">
<g clip-path="url(#clip0_489_445)">
<path d="M19.6032 14.4509C23.4358 14.4509 27.1115 15.9734 29.8215 18.6834C32.5316 21.3935 34.0541 25.0691 34.0541 28.9017C34.0541 32.7343 32.5316 36.41 29.8215 39.12C27.1115 41.8301 23.4358 43.3526 19.6032 43.3526C15.7706 43.3526 12.095 41.8301 9.3849 39.12C6.67484 36.41 5.15234 32.7343 5.15234 28.9017C5.15234 25.0691 6.67484 21.3935 9.3849 18.6834C12.095 15.9734 15.7706 14.4509 19.6032 14.4509ZM41.2795 16.8593C44.8922 16.8593 47.3007 22.2519 47.3007 28.9017C47.3007 35.5515 44.8922 40.9441 41.2795 40.9441C37.6668 40.9441 35.2583 35.5515 35.2583 28.9017C35.2583 22.2519 37.6668 16.8593 41.2795 16.8593ZM50.9134 18.0636C51.8286 18.0636 52.6283 20.0554 53.0329 23.473L53.1461 24.54L53.1918 25.106L53.2641 26.2958L53.2882 26.9196L53.3171 28.2225L53.3219 28.9017L53.3171 29.5809L53.2882 30.8839L53.2641 31.5101L53.1918 32.6975L53.1437 33.2635L53.0353 34.3304C52.6283 37.7505 51.831 39.7399 50.9134 39.7399C49.9982 39.7399 49.1986 37.7481 48.794 34.3304L48.6808 33.2635C48.6642 33.0749 48.6489 32.8863 48.635 32.6975L48.5627 31.5077C48.5534 31.2998 48.5454 31.0919 48.5387 30.8839L48.5098 29.5809V28.2225L48.5387 26.9196L48.5627 26.2934L48.635 25.106L48.6832 24.54L48.7915 23.473C49.1986 20.053 49.9958 18.0636 50.9134 18.0636Z" fill="#6C5ECF"/>
</g>
<defs>
<clipPath id="clip0_489_445">
<rect width="57.8035" height="57.8035" fill="white" transform="translate(0.335449)"/>
</clipPath>
</defs>
</svg>
