<svg width="50" height="50" viewBox="0 0 50 50" fill="none" xmlns="http://www.w3.org/2000/svg">
<path d="M12.5 14.5834H22.9167C23.4692 14.5834 23.9991 14.8029 24.3898 15.1936C24.7805 15.5843 25 16.1142 25 16.6667C25 17.2192 24.7805 17.7491 24.3898 18.1398C23.9991 18.5305 23.4692 18.75 22.9167 18.75H12.5C11.9475 18.75 11.4176 18.5305 11.0269 18.1398C10.6362 17.7491 10.4167 17.2192 10.4167 16.6667C10.4167 16.1142 10.6362 15.5843 11.0269 15.1936C11.4176 14.8029 11.9475 14.5834 12.5 14.5834ZM27.0834 31.25H37.5C38.0526 31.25 38.5825 31.4695 38.9732 31.8602C39.3639 32.2509 39.5834 32.7808 39.5834 33.3334C39.5834 33.8859 39.3639 34.4158 38.9732 34.8065C38.5825 35.1972 38.0526 35.4167 37.5 35.4167H27.0834C26.5308 35.4167 26.0009 35.1972 25.6102 34.8065C25.2195 34.4158 25 33.8859 25 33.3334C25 32.7808 25.2195 32.2509 25.6102 31.8602C26.0009 31.4695 26.5308 31.25 27.0834 31.25ZM12.5 22.9167H37.5C38.0526 22.9167 38.5825 23.1362 38.9732 23.5269C39.3639 23.9176 39.5834 24.4475 39.5834 25C39.5834 25.5526 39.3639 26.0825 38.9732 26.4732C38.5825 26.8639 38.0526 27.0834 37.5 27.0834H12.5C11.9475 27.0834 11.4176 26.8639 11.0269 26.4732C10.6362 26.0825 10.4167 25.5526 10.4167 25C10.4167 24.4475 10.6362 23.9176 11.0269 23.5269C11.4176 23.1362 11.9475 22.9167 12.5 22.9167Z" fill="#2E3A59"/>
</svg>
