<svg width="46" height="46" viewBox="0 0 46 46" fill="none" xmlns="http://www.w3.org/2000/svg">
<path d="M33.0625 12.9375C33.0625 15.6062 32.0023 18.1657 30.1153 20.0528C28.2282 21.9398 25.6687 23 23 23C20.3313 23 17.7718 21.9398 15.8847 20.0528C13.9977 18.1657 12.9375 15.6062 12.9375 12.9375C12.9375 10.2688 13.9977 7.70932 15.8847 5.82224C17.7718 3.93515 20.3313 2.875 23 2.875C25.6687 2.875 28.2282 3.93515 30.1153 5.82224C32.0023 7.70932 33.0625 10.2688 33.0625 12.9375ZM30.1875 12.9375C30.1875 11.0313 29.4302 9.20309 28.0823 7.85517C26.7344 6.50725 24.9062 5.75 23 5.75C21.0938 5.75 19.2656 6.50725 17.9177 7.85517C16.5698 9.20309 15.8125 11.0313 15.8125 12.9375C15.8125 14.8437 16.5698 16.6719 17.9177 18.0198C19.2656 19.3677 21.0938 20.125 23 20.125C24.9062 20.125 26.7344 19.3677 28.0823 18.0198C29.4302 16.6719 30.1875 14.8437 30.1875 12.9375ZM10.7812 25.875C9.44688 25.875 8.16716 26.4051 7.22362 27.3486C6.28008 28.2922 5.75 29.5719 5.75 30.9062V31.625C5.75 35.0649 7.93931 37.9744 11.0472 39.9524C14.1723 41.9419 18.4029 43.125 23 43.125C27.5971 43.125 31.8263 41.9419 34.9528 39.9524C38.0607 37.9744 40.25 35.0649 40.25 31.625V30.9062C40.25 29.5719 39.7199 28.2922 38.7764 27.3486C37.8328 26.4051 36.5531 25.875 35.2188 25.875H10.7812ZM8.625 30.9062C8.625 30.3344 8.85218 29.7859 9.25655 29.3816C9.66093 28.9772 10.2094 28.75 10.7812 28.75H35.2188C35.7906 28.75 36.3391 28.9772 36.7434 29.3816C37.1478 29.7859 37.375 30.3344 37.375 30.9062V31.625C37.375 33.7424 36.0237 35.8642 33.4089 37.5274C30.8114 39.1805 27.1357 40.25 23 40.25C18.8643 40.25 15.1886 39.1805 12.5911 37.5274C9.97481 35.8656 8.625 33.741 8.625 31.625V30.9062Z" fill="#D8DEF3"/>
</svg>
