<svg width="52" height="53" viewBox="0 0 52 53" fill="none" xmlns="http://www.w3.org/2000/svg">
<rect x="27.4716" y="34.2344" width="5.67857" height="16.0893" rx="2.83929" transform="rotate(-45 27.4716 34.2344)" fill="#D8DEF3"/>
<path fill-rule="evenodd" clip-rule="evenodd" d="M33.1601 35.239C39.6282 28.771 39.6282 18.2842 33.1601 11.8161C26.6921 5.34804 16.2053 5.34804 9.73721 11.8161C3.26915 18.2842 3.26915 28.771 9.73721 35.239C16.2053 41.7071 26.6921 41.7071 33.1601 35.239ZM29.8139 31.8931C34.434 27.273 34.434 19.7825 29.8139 15.1624C25.1939 10.5424 17.7033 10.5424 13.0833 15.1624C8.46324 19.7825 8.46324 27.273 13.0833 31.8931C17.7033 36.5131 25.1939 36.5131 29.8139 31.8931Z" fill="#D8DEF3"/>
</svg>
