<svg width="24" height="24" viewBox="0 0 24 24" fill="none" xmlns="http://www.w3.org/2000/svg">
<path fill-rule="evenodd" clip-rule="evenodd" d="M11.199 2.58686C11.444 2.4508 11.7197 2.37939 12 2.37939C12.2803 2.37939 12.556 2.4508 12.801 2.58686L20.001 6.58686C20.525 6.87786 20.85 7.42986 20.85 8.02986V15.9699C20.85 16.5699 20.525 17.1219 20.001 17.4129L12.801 21.4129C12.556 21.5489 12.2803 21.6203 12 21.6203C11.7197 21.6203 11.444 21.5489 11.199 21.4129L3.999 17.4129C3.74163 17.2699 3.52717 17.0608 3.37789 16.807C3.2286 16.5533 3.14992 16.2643 3.15 15.9699V8.02986C3.15 7.42986 3.475 6.87786 3.999 6.58686L11.199 2.58686ZM12.073 3.89886C12.0507 3.88643 12.0256 3.8799 12 3.8799C11.9745 3.8799 11.9493 3.88643 11.927 3.89886L4.727 7.89886C4.70381 7.91178 4.68447 7.93062 4.67094 7.95346C4.65741 7.9763 4.65019 8.00232 4.65 8.02886V15.9709C4.65 16.0249 4.68 16.0749 4.727 16.1009L11.927 20.1009C11.9493 20.1133 11.9745 20.1198 12 20.1198C12.0256 20.1198 12.0507 20.1133 12.073 20.1009L19.273 16.1009C19.2962 16.0879 19.3155 16.0691 19.3291 16.0463C19.3426 16.0234 19.3498 15.9974 19.35 15.9709V8.02986C19.35 8.00315 19.3429 7.97692 19.3293 7.95389C19.3158 7.93086 19.2963 7.91186 19.273 7.89886L12.073 3.89886Z" fill="black"/>
<path fill-rule="evenodd" clip-rule="evenodd" d="M7.25 12C7.25 10.7402 7.75045 9.53204 8.64124 8.64124C9.53204 7.75045 10.7402 7.25 12 7.25C13.2598 7.25 14.468 7.75045 15.3588 8.64124C16.2496 9.53204 16.75 10.7402 16.75 12C16.75 13.2598 16.2496 14.468 15.3588 15.3588C14.468 16.2496 13.2598 16.75 12 16.75C10.7402 16.75 9.53204 16.2496 8.64124 15.3588C7.75045 14.468 7.25 13.2598 7.25 12ZM12 8.75C11.138 8.75 10.3114 9.09241 9.7019 9.7019C9.09241 10.3114 8.75 11.138 8.75 12C8.75 12.862 9.09241 13.6886 9.7019 14.2981C10.3114 14.9076 11.138 15.25 12 15.25C12.862 15.25 13.6886 14.9076 14.2981 14.2981C14.9076 13.6886 15.25 12.862 15.25 12C15.25 11.138 14.9076 10.3114 14.2981 9.7019C13.6886 9.09241 12.862 8.75 12 8.75Z" fill="black"/>
</svg>
