<svg width="59" height="58" viewBox="0 0 59 58" fill="none" xmlns="http://www.w3.org/2000/svg">
<g clip-path="url(#clip0_489_443)">
<path d="M46.1966 52.6572V37.2381H51.3429V57.8035H4.91406V37.2381H10.0423V52.6572H46.1966ZM15.1868 47.5199H41.0611V42.3754H15.1868V47.5199ZM15.819 35.8363L41.0629 41.1037L42.1449 36.1181L16.9119 30.858L15.819 35.8363ZM19.0922 23.6615L42.4646 34.5665L44.6377 29.8699L21.2688 18.9577L19.094 23.6254L19.0922 23.6615ZM25.6312 12.1369L45.4162 28.6488L48.6912 24.7417L28.9061 8.24061L25.6493 12.1261L25.6312 12.1369ZM38.4076 0L34.2024 3.11416L49.6305 23.8385L53.8357 20.7243L38.4076 0Z" fill="#6C5ECF"/>
</g>
<defs>
<clipPath id="clip0_489_443">
<rect width="57.8035" height="57.8035" fill="white" transform="translate(0.474121)"/>
</clipPath>
</defs>
</svg>
