<svg width="58" height="58" viewBox="0 0 58 58" fill="none" xmlns="http://www.w3.org/2000/svg">
<path d="M39.5994 33.7187C39.7921 32.1291 39.9366 30.5395 39.9366 28.9017C39.9366 27.264 39.7921 25.6744 39.5994 24.0848H47.7401C48.1254 25.6262 48.3663 27.2399 48.3663 28.9017C48.3663 30.5636 48.1254 32.1773 47.7401 33.7187M35.3364 47.1098C36.7815 44.4364 37.8894 41.5462 38.6601 38.5356H45.7651C43.4317 42.5536 39.7297 45.5973 35.3364 47.1098ZM34.7343 33.7187H23.4626C23.2218 32.1291 23.0773 30.5395 23.0773 28.9017C23.0773 27.264 23.2218 25.6503 23.4626 24.0848H34.7343C34.951 25.6503 35.1196 27.264 35.1196 28.9017C35.1196 30.5395 34.951 32.1291 34.7343 33.7187ZM29.0984 48.0732C27.0994 45.183 25.4857 41.9798 24.4983 38.5356H33.6986C32.7112 41.9798 31.0975 45.183 29.0984 48.0732ZM19.4645 19.2678H12.4318C14.7412 15.239 18.4404 12.1905 22.8364 10.6936C21.3913 13.3671 20.3075 16.2572 19.4645 19.2678ZM12.4318 38.5356H19.4645C20.3075 41.5462 21.3913 44.4364 22.8364 47.1098C18.4497 45.5965 14.7556 42.5523 12.4318 38.5356ZM10.4568 33.7187C10.0715 32.1773 9.83063 30.5636 9.83063 28.9017C9.83063 27.2399 10.0715 25.6262 10.4568 24.0848H18.5975C18.4048 25.6744 18.2603 27.264 18.2603 28.9017C18.2603 30.5395 18.4048 32.1291 18.5975 33.7187M29.0984 9.70617C31.0975 12.5963 32.7112 15.8237 33.6986 19.2678H24.4983C25.4857 15.8237 27.0994 12.5963 29.0984 9.70617ZM45.7651 19.2678H38.6601C37.9063 16.2848 36.7901 13.4053 35.3364 10.6936C39.768 12.211 43.453 15.2697 45.7651 19.2678ZM29.0984 4.81696C15.7796 4.81696 5.01367 15.6551 5.01367 28.9017C5.01367 35.2894 7.55117 41.4155 12.0679 45.9322C14.3044 48.1687 16.9595 49.9428 19.8816 51.1532C22.8037 52.3635 25.9356 52.9865 29.0984 52.9865C35.4861 52.9865 41.6122 50.449 46.129 45.9322C50.6457 41.4155 53.1832 35.2894 53.1832 28.9017C53.1832 25.7389 52.5603 22.607 51.3499 19.6849C50.1395 16.7628 48.3654 14.1077 46.129 11.8712C43.8925 9.63474 41.2374 7.86067 38.3153 6.6503C35.3932 5.43993 32.2613 4.81696 29.0984 4.81696Z" fill="#6C5ECF"/>
</svg>
